<svg xmlns="http://www.w3.org/2000/svg" viewBox="0 0 260 260"><path fill="#F1F1F1" d="M209.3 100.6s-7.6-11.5-19.2-13.8c-6.5-1.3-11 .5-13.9 2.4l12.4 22.8-5.4 3-13.6-25c-3.5-2.6-9.8-6.3-16.1-5.5-6.3.7-11.2 4.1-14.2 6.5l14 25.7-5.4 2.9-15.8-28.9c-3.8-1.5-9.8-2.5-17.3 1-4.1 1.9-6.7 5.3-8.5 8.6l12.9 25-5.4 3-24.1-44.8c14.6-15.1 18.6-38.4 8-57.8C84.6 1.8 54.6-7 30.7 6 6.8 19.1-2 49.1 11.1 73c10.2 18.7 30.7 28 50.7 25l41.5 76s-30.5-22.5-44.5-20c-14.1 2.5-17.6 13.7-17.6 13.7s27.1 17.6 52.2 40c16.1 14.4 29.3 34 40.5 41.2 28.6 18.3 48.3 11.1 70.2-.9 22-12 52.9-26.2 50.8-48.8-2-22.5-45.6-98.6-45.6-98.6zM29.7 62.7c-7.4-13.6-2.4-30.6 11.2-38.1 13.6-7.4 30.7-2.4 38.1 11.2 4.9 8.9 4.3 19.2-.3 27.3l-8.6-16s-12.3-14.9-22.6-9.3C37.2 43.5 41 60 41 60l9.3 17c-8.4-1.2-16.2-6.2-20.6-14.3zm0 0"/></svg>