<svg xmlns="http://www.w3.org/2000/svg" viewBox="0 0 260 260"><path fill="#F1F1F1" d="M122.8 213.4l4.9 16c2.3 7.4 7.4 13.2 13.8 16.5l20.4 10.8c13.6 7.2 30.5 2 37.7-11.6l10.8-20.4c3.5-6.3 4.5-14 2.2-21.5l-3.3-10.7-47.2 14.5c-6.2 1.9-12.6-1.4-14.4-7.2-1.8-5.8 1.7-12.1 7.9-14l48.6-14.9c-5.3-43.1 23.3-70.5 11.1-110.4C201.2 15 151.9-10.4 105 4S31.4 67 45.4 112.7c13.8 45.1 61.2 48 77.4 100.7zm10.9-165.9c-5.3.6-10.4-2.6-12-7.8-1.8-5.8 1.5-12.2 7.3-14 8.4-2.6 20.5.3 31.7 6.1 11.4 6 21.4 15.7 23.8 23.3 1.8 5.8-1.5 12.1-7.4 13.9-5.2 1.6-10.7-.8-13.1-5.5-5.9-9.9-18-16.9-30.3-16z"/></svg>