<svg xmlns="http://www.w3.org/2000/svg" viewBox="0 0 105.9 119.2"><g fill="#2C3E50" id="bg-icon"><path stroke-linejoin="round" stroke="#2C3E50" stroke-miterlimit="10" d="M94.2 57.8L72.7 95c-.7 1.2-1.9 1.9-3.2 1.9l-42.9-.1c-1.3 0-2.6-.7-3.2-1.9L1.8 57.7c-.7-1.2-.7-2.6 0-3.7l21.5-37.2c.7-1.2 1.9-1.9 3.2-1.9l43 .1c1.3 0 2.6.7 3.2 1.9l21.4 37.2c.8 1.1.8 2.6.1 3.7z"/><path d="M82.9 4.7c-.1-.1-.2-.2-.4-.2h-8.4c-.2 0-.4.1-.4.3-.1.2-.1.4 0 .5l5.6 8.5c.1.1.3.2.4.2h.1c.2 0 .3-.2.4-.3L83 5.1c.1-.1 0-.3-.1-.4zm17 21.9L94.2 9.4c-.1-.2-.2-.3-.3-.3-.2 0-.3 0-.5.1L79 20.2c-.1.1-.2.3-.2.5s.2.3.3.4l20.1 6.1h.1c.1 0 .3-.1.4-.2.2 0 .2-.2.2-.4zm5.9 11.7L98 31.4c-.1-.1-.3-.1-.4-.1-.2 0-.3.1-.4.3L93 40.8c-.1.2-.1.4.1.5.1.1.2.2.4.2h.1l11.9-2.4c.2 0 .3-.2.4-.4.1-.1 0-.3-.1-.4zM16.6 12.1c-.1-.2-.3-.2-.5-.2L.4 13.7c-.2 0-.3.1-.4.2s0 .3 0 .5l6.5 13.9c.1.2.2.1.4.1s.3 0 .4-.1l9.1-15.7c.3-.1.3-.3.2-.5zm8.7-12c-.1-.1-.3-.1-.5 0l-7.1 4.3c-.1.1-.2.2-.2.4s0 .3.2.4l6.3 5.6c.1.1.2.1.3.1h.2c.2-.1.3-.2.3-.4l.8-9.8c0-.3-.1-.5-.3-.6zm14 105c-.1-.2-.2-.3-.4-.3L17.7 102c-.2 0-.4.1-.5.2s-.1.3 0 .5l7.9 16.2c.1.1.2.2.4.3h.1c.1 0 .3-.1.4-.1l13.3-13.4v-.6zm-21.6-12L4.8 80.4c-.1-.1-.3-.2-.5-.1s-.3.2-.3.4L2 95.6c0 .2 0 .3.1.4s.2.1.4.1h.1l15-2.2c.2 0 .3-.2.4-.3-.1-.1-.1-.3-.3-.5zm34.3 19l-6.4-7.9c-.1-.1-.3-.2-.5-.2s-.3.2-.4.4l-2 8.4c0 .2 0 .3.1.4s.2.2.4.2l8.4-.5c.2 0 .4-.1.4-.3.1-.1.1-.3 0-.5zm33-24.5c-.2-.1-.4 0-.6.2l-9 12.1c-.1.1-.1.3-.1.5.1.2.2.3.3.3l8.4 2.4h.1c.1 0 .2 0 .3-.1s.2-.2.2-.4l.7-14.6c0-.2-.1-.4-.3-.4z"/></g><path stroke="#2C3E50" stroke-width="4" stroke-miterlimit="10" d="M82.7 82.6l-29 16.7c-3.4 2-7.6 2-11 0L13.8 82.5c-3.4-2-5.5-5.6-5.5-9.6l.1-33.4c0-3.9 2.1-7.6 5.5-9.5l29-16.7c3.4-2 7.6-2 11 0l28.9 16.8c3.4 2 5.5 5.6 5.5 9.6l-.1 33.4c0 3.9-2.1 7.5-5.5 9.5z" fill="#F1F1F1"/><path stroke-linejoin="round" stroke="#2C3E50" stroke-miterlimit="10" d="M79.3 80L53.2 95c-3.1 1.8-6.9 1.8-9.9 0l-26-15.1c-3.1-1.8-5-5.1-4.9-8.6l.1-30.1c0-3.5 1.9-6.8 5-8.6l26.1-15c3.1-1.8 6.9-1.8 9.9 0l26 15.1c3.1 1.8 5 5.1 4.9 8.6l-.1 30.1c-.1 3.5-1.9 6.8-5 8.6z" fill="#2C3E50"/><path d="M66.4 70c-5.6-14-12.2-17.7-12.2-24.7v-8.2h1.4c.8 0 1.4-.6 1.4-1.4V33c0-.8-.6-1.4-1.4-1.4H41.9c-.8 0-1.4.6-1.4 1.4v2.7c0 .8.6 1.4 1.4 1.4h1.4v8.2c0 7-6.5 10.7-12.2 24.7-1.8 4.5-6.4 11 17.6 11s19.5-6.6 17.7-11zM62 74.8c-1.9.6-5.8 1.2-13.2 1.2s-11.3-.7-13.2-1.2c-.7-.2-.9-1-.7-1.7.6-1.8 1.7-5 3.9-8.6 5.2-8.7 10.6 1.4 15.1 1.4s3.3-4.3 5-1.4c2.1 3.5 3.3 6.7 3.9 8.6.1.7-.1 1.5-.8 1.7z" fill="#F1F1F1"/></svg>