<?xml version="1.0" encoding="utf-8"?>
<!-- Generator: Adobe Illustrator 19.0.0, SVG Export Plug-In . SVG Version: 6.00 Build 0)  -->
<svg version="1.1" id="Camada_1" xmlns="http://www.w3.org/2000/svg" xmlns:xlink="http://www.w3.org/1999/xlink" x="0px" y="0px"
	 viewBox="-97 205 416 352" style="enable-background:new -97 205 416 352;" xml:space="preserve">
<style type="text/css">
	.st0{fill:#1C2834;}
</style>
<g id="icomoon-ignore">
</g>
<path class="st0" d="M95,413v96c0,13.3-4.7,24.7-14,34s-20.7,14-34,14h-96c-13.3,0-24.7-4.7-34-14s-14-20.7-14-34V333
	c0-17.3,3.4-33.9,10.1-49.6S-71,254-59.5,242.5s25.1-20.6,40.9-27.4S13.7,205,31,205h16c4.3,0,8.1,1.6,11.3,4.8S63,216.7,63,221v32
	c0,4.3-1.6,8.1-4.8,11.3S51.3,269,47,269H31c-17.7,0-32.8,6.3-45.3,18.8S-33,315.3-33,333v8c0,6.7,2.3,12.3,7,17s10.3,7,17,7h56
	c13.3,0,24.7,4.7,34,14S95,399.7,95,413z M319,413v96c0,13.3-4.7,24.7-14,34s-20.7,14-34,14h-96c-13.3,0-24.7-4.7-34-14
	s-14-20.7-14-34V333c0-17.3,3.4-33.9,10.1-49.6s15.9-29.4,27.4-40.9s25.1-20.6,40.9-27.4S237.7,205,255,205h16
	c4.3,0,8.1,1.6,11.3,4.8s4.8,6.9,4.8,11.3v32c0,4.3-1.6,8.1-4.8,11.3s-6.9,4.8-11.3,4.8h-16c-17.7,0-32.8,6.3-45.3,18.8
	S191,315.3,191,333v8c0,6.7,2.3,12.3,7,17s10.3,7,17,7h56c13.3,0,24.7,4.7,34,14S319,399.7,319,413z"/>
</svg>
