<svg xmlns="http://www.w3.org/2000/svg" viewBox="425 0 750 3000"><path d="M702.5 2445.8c-6-3.8-15-7.5-23.3-7.5-33.8 0-61.5 27.8-61.5 63 0 50.3 53.3 67.5 85.5 93v11.3c0 47.2 33 86.3 77.3 94.5v56.3c0 9-6.8 15.8-15.8 15.8H722c-10.5 0-19.5 9-19.5 19.5s9 19.5 19.5 19.5h156c10.5 0 19.5-9 19.5-19.5s-9-19.5-19.5-19.5h-42.8c-9 0-15.8-6.8-15.8-15.8V2700c44.3-9 77.3-48 77.3-94.5v-11.3c32.3-24 85.5-42.8 85.5-93 0-34.5-27.7-63-61.5-63-7.5 0-17.3 3.8-23.3 7.5H702.5v.1zm70.5 54.7v93c0 9-6.8 15.8-15.8 15.8s-15.7-6.8-15.7-15.8v-93c0-9 6.8-15.8 15.7-15.8 9.1.1 15.8 7.6 15.8 15.8zm-116.2.8c0-12.8 10.5-23.3 23.3-23.3s23.3 10.5 23.3 23.3v48c-22.6-15-46.6-23.3-46.6-48zm286.5 0c0 24-24 33.8-47.3 48v-48c0-12.8 10.5-23.3 23.3-23.3 13.5 0 24 10.5 24 23.3zm-51.8-1467.8v-45c0-16.5-14.3-30.7-30.8-30.7H739.3c-16.5 0-30.8 14.3-30.8 30.7v45h-60.8c-16.5 0-30.8 14.3-30.8 30.8v197.3c0 16.5 14.3 30.8 30.8 30.8h304.5c16.5 0 30.8-14.2 30.8-30.8v-197.3c0-16.5-14.3-30.8-30.8-30.8h-60.7zm-128.2-38.2H836c9.8 0 16.5 7.5 16.5 16.5v21.7H746.8v-21.7c0-8.3 7.5-16.5 16.5-16.5zm-54.8 91.5V1239c0 9-6.8 15-15 15s-15-6.8-15-15v-152.3c0-9 6.8-15 15-15s15 7.6 15 15.1zm213 0V1239c0 9-6.8 15-15 15-9 0-15-6.8-15-15v-152.3c0-9 6.8-15 15-15s15 7.6 15 15.1zm-258 925.4h320.3v45.8H618.5v-365.3h45.8v319.5h-.8zm56.3-23.2c-19.5 0-33.8-15.8-33.8-33.8 0-19.5 15.8-33.8 33.8-33.8h2.3l36.8-61.5c-3.8-5.3-5.3-12-5.3-18 0-19.5 15.8-33.8 33.8-33.8S821 1824 821 1842c0 6.8-1.5 12.8-5.3 18l36.8 61.5h5.3l60.8-106.5c-3.8-5.3-6-12-6-19.5 0-19.5 15.8-33.8 33.8-33.8s33.8 15.8 33.8 33.8c0 18-15.8 33.8-33.8 33.8H944l-60.8 106.5c3.8 5.3 6 12 6 19.5 0 19.5-15.8 33.8-33.8 33.8s-33.8-15.8-33.8-33.8c0-6.8 1.5-12.8 5.3-18l-36.8-61.5H785l-36.8 61.5c3.8 5.3 5.3 12 5.3 18 1.5 18.7-14.2 33.7-33.7 33.7zm102-1529.2l21.8 21.7c6.8 6.8 19.5 6.8 26.3 0s6.8-19.5 0-26.3L848 433.5l21.8-21.8s-83.2-36-87-37.5c-1.5-.7-3.8-.7-6-.7-9 0-15.8 6.8-15.8 15.7 0 1.5 0 4.5.8 6 .7 3.8 37.5 87 37.5 87l22.5-22.4zM617 532.5c0 16.5 14.3 30.8 30.8 30.8h304.5c16.5 0 30.8-14.3 30.8-30.8v-282c0-16.5-14.3-30.8-30.8-30.8H647.8c-16.5 0-30.8 14.2-30.8 30.8v282zM671.8 327h255.8c9.8 0 16.5 7.5 16.5 16.5v164.2c0 9.8-7.5 16.5-16.5 16.5H671.8c-9.8 0-16.5-7.5-16.5-16.5V343.5c0-8.2 7.5-16.5 16.5-16.5zm-16.5-49.5c0-10.5 9-19.5 19.5-19.5s19.5 9 19.5 19.5-9 19.5-19.5 19.5-19.5-9-19.5-19.5zm68.2 0c0-10.5 9-19.5 19.5-19.5s19.5 9 19.5 19.5-9 19.5-19.5 19.5-19.5-9-19.5-19.5zm69 0c0-10.5 9-19.5 19.5-19.5s19.5 9 19.5 19.5-9 19.5-19.5 19.5-19.5-9-19.5-19.5z" fill="#F1F1F1"/></svg>