<svg xmlns="http://www.w3.org/2000/svg" viewBox="0 0 80 119.4"><g fill="#F1F1F1"><path d="M28.6 28.9c1 0 1.9-.3 2.7-.8 2.5-1.5 3.3-4.8 1.8-7.3-.3-.5-.2-1.2.4-1.6.2-.1.4-.2.6-.2.4 0 .8.2 1 .5 1 1.6 2.7 2.6 4.6 2.6 1 0 1.9-.3 2.7-.8 2.5-1.5 3.3-4.8 1.8-7.3-2.1-3.5-6-5.7-10.1-5.7-2.1 0-4.2.6-6.1 1.7-5.6 3.4-7.3 10.6-4 16.1 1 1.8 2.8 2.8 4.6 2.8zm1.5-15.3c1.2-.7 2.6-1.1 4-1.1 2.7 0 5.3 1.4 6.7 3.8.4.7.2 1.5-.5 1.9-.2.1-.5.2-.7.2-.5 0-.9-.2-1.2-.7-.9-1.5-2.6-2.4-4.3-2.4-.9 0-1.8.3-2.6.7-2.4 1.4-3.2 4.6-1.7 7 .4.7.2 1.5-.5 1.9-.2.1-.5.2-.7.2-.5 0-.9-.2-1.2-.7-2.2-3.8-1-8.6 2.7-10.8zm29.3 5c.4 0 .8.1 1.2.1 6 0 11.1-4.5 11.7-10.5.1-1.4-.3-2.8-1.2-3.9s-2.1-1.9-3.5-2H67c-2.7 0-5 2-5.3 4.8-.1.6-.6 1-1.1 1h-.1c-.3 0-.6-.2-.8-.4-.2-.2-.3-.5-.2-.8.1-1.4-.3-2.8-1.2-3.9-.9-1.1-2.2-1.8-3.6-1.9h-.6c-2.7 0-5 2-5.3 4.8-.3 3.1.6 6.2 2.6 8.6s4.9 3.8 8 4.1zM52.8 6.1c.1-.7.7-1.2 1.4-1.2h.1c.4 0 .7.2.9.5.2.3.3.6.3 1-.1 1.3.3 2.7 1.1 3.7.9 1.1 2.1 1.7 3.4 1.8h.5c2.6 0 4.8-2 5-4.5.1-.8.8-1.3 1.5-1.2.4 0 .7.2.9.5.2.3.3.6.3 1-.4 4-3.8 7-7.8 7h-.8c-2.1-.2-3.9-1.2-5.3-2.9-1.1-1.6-1.7-3.6-1.5-5.7zm-36 11.8c1.7-2.7 2.2-5.8 1.4-8.9C17 3.7 12.3 0 6.8 0 5.9 0 5 .1 4.1.3 2.7.6 1.5 1.5.8 2.7c-.7 1.2-1 2.6-.7 4 .6 2.4 2.7 4.1 5.2 4.1.4 0 .8 0 1.2-.1.6-.1 1.2.3 1.4.8.1.3 0 .6-.1.9-.2.3-.4.4-.7.5-1.4.3-2.6 1.2-3.3 2.4-.7 1.2-1 2.6-.7 4 .6 2.4 2.7 4.1 5.2 4.1.4 0 .8 0 1.2-.1 3.1-.8 5.6-2.7 7.3-5.4zm-3.3-2c-1.1 1.8-2.8 3-4.9 3.5h-.3c-.6 0-1.2-.4-1.3-1.1-.1-.4 0-.7.2-1 .1-.3.4-.5.8-.6 1.3-.3 2.4-1.1 3.1-2.3.7-1.2.9-2.5.6-3.8-.5-2.3-2.6-3.9-4.9-3.9-.4 0-.8 0-1.2.1h-.3c-.6.1-1.2-.4-1.3-1-.1-.4 0-.7.2-1 .1-.4.4-.6.8-.7.6-.1 1.2-.2 1.8-.2 3.6 0 6.8 2.5 7.6 6 .5 2.1.2 4.2-.9 6z"/><path d="M80 106v-.4c0-.1-1.7-7.4-1.7-18.3v-24c0-10.9 1.6-18.3 1.6-18.4V33c0-1.1-.9-2-2-2h-5.5c.1-4.4-2.3-8.6-6.2-10.7-.8-.4-1.6-.6-2.5-.6-2 0-3.8 1.1-4.7 2.8-1.4 2.6-.4 5.8 2.2 7.2.5.3.7.8.5 1.3H12.9c-1.1 0-2 .9-2 2v11.9c0 .1 1.8 7.5 1.8 18.3v23.9c0 10.9-1.7 18.3-1.7 18.3v11.9c0 1.1.9 2 2 2h65c1.1 0 2-.9 2-2V106zm-47.4 2v7.5h-6.9V108h6.9zm3.9 0h6.9v7.5h-6.9V108zm10.8 0h6.6v7.5h-6.6V108zm10.6 0h6.9v7.5h-6.9V108zm-42.6-4c.5-3.1 1.3-9.1 1.3-16.8V63.3c0-7.7-.8-13.7-1.4-16.8h60.3c-.5 3.1-1.3 9.1-1.3 16.8v23.9c0 7.7.8 13.7 1.3 16.8H15.3zm49.4-69v7.5h-6.9V35h6.9zm-10.8 7.5h-6.6V35h6.6v7.5zm-10.6 0h-6.9V35h6.9v7.5zm-10.8 0h-6.9V35h6.9v7.5zm43.5 0h-7.4V35H76v7.5zM62.5 24.4c.2-.5.7-.7 1.2-.7.2 0 .4.1.6.2 2.3 1.2 3.9 3.6 4.1 6.2h-2.8c-.2-1.5-1.2-3-2.6-3.7-.6-.5-.8-1.3-.5-2zM14.8 35h6.8v7.5h-6.8V35zm.1 73h6.8v7.5h-6.8V108zm61.2 7.5h-7.4V108h7.4v7.5z"/><path d="M65.5 63.2h-4.4c-1.1 0-2 .9-2 2s.9 2 2 2h2.4V83H27.7V67.2h22.8c1.1 0 2-.9 2-2s-.9-2-2-2H25.8c-1.1 0-2 .9-2 2v19.7c0 1.1.9 2 2 2h39.7c1.1 0 2-.9 2-2V65.2c-.1-1.1-1-2-2-2z"/></g></svg>