<svg xmlns="http://www.w3.org/2000/svg" viewBox="0 0 80 105.6"><path d="M64.8 44.5c.1-1.3.1-2.6.2-4 0-.8-.2-1.4-.6-1.8-1.4-3.6-5.6-5.8-9-7.1-8-3.1-16.9-3.5-25.3-3.3-.4 0-.7.1-1 .2-7.1-.2-14.6.1-21.3 2.6C4 32.6-.4 35.6 0 40.3c.1.8.2 1.5.5 2.1C1.6 59 .5 75.5.1 92.1c-.1.5-.1 1.1.1 1.7 6.6 16.1 51.7 14.7 63.1 2.3.4-.5.7-1 .7-1.5.4-.4.6-1 .6-1.8l-.3-15.4C73 75.7 80 69.5 79.9 60.2c-.1-8.8-7.3-14.1-15.1-15.7zM6.6 38.7c1.2-1.3 3.1-1.9 4.7-2.4 11.7-3.8 27.3-3.1 39.1 0 2.6.7 7.5 2.2 8.4 4.9.1.4.1.6-.6 1.3-1.2 1.3-3.1 1.9-4.8 2.4-.1 0-.3.1-.4.1-13.2-7.7-28.8-8.5-42.6-1.9-.2.1-.3.2-.4.3-1.8-.8-3.5-1.9-4-3.4-.1-.4-.1-.6.6-1.3zm38.5 8.1c-8.9 1.3-18.7.7-27.3-1.1 9-3 18.5-2.5 27.3 1.1zM5.6 92.6s0-.1 0 0c.3-14.9 1.2-29.7.7-44.5 1.1.6 2.2 1.1 3.2 1.5 8 3.1 16.9 3.5 25.3 3.3.4 0 .7-.1 1-.2 7.1.2 14.6-.1 21.3-2.6l2.1-.9c-.5 14.5-.1 29 .1 43.5-8.4 8.5-48.8 11.5-53.7-.1zm58.8-20.8c-.1-7.3 0-14.5.2-21.8 5.1 1.2 9.5 4.5 10 10.2.5 6.4-4.8 10.1-10.2 11.6zM23.1 16.7l.1.1c1.4 2 1.5 3.9-.6 5.5-1.1.8-1.7 2.2-.9 3.5.6 1.1 2.4 1.8 3.5.9 4.4-3.3 5.7-8.2 2.3-12.8-.1-.1-.1-.2-.2-.3-.1-.2-.3-.4-.5-.6-3.5-2.9-3.2-5.6 0-8.7 2.4-2.3-1.3-6-3.6-3.6-5.2 4.9-5.8 11.3-.1 16zm18.5 0l.1.1c1.4 2 1.5 3.9-.6 5.5-1.1.8-1.7 2.2-.9 3.5.6 1.1 2.4 1.8 3.5.9 4.4-3.3 5.7-8.2 2.3-12.8-.1-.1-.1-.2-.2-.3-.1-.2-.3-.4-.5-.6-3.5-2.9-3.2-5.6 0-8.7C47.7 2 44-1.7 41.7.7c-5.1 4.9-5.7 11.3-.1 16z" fill="#F1F1F1"/></svg>