<svg xmlns="http://www.w3.org/2000/svg" viewBox="0 0 80 112.2"><path fill="#F1F1F1" d="M76.5 21.6c-.2-.1-.4-.1-.7-.1-10.5 0-20.9.1-31.4.3V2.7c0-1.4-1.2-2.9-3.1-2.7-4.5.7-8.8 2.2-12.6 4.9-2.6 1.8-.1 6.1 2.5 4.2 2.6-1.8 5.3-3 8.3-3.7v16.4c-11.7.1-23.4.3-35 .3-1.4 0-2.1.9-2.3 2-.1.1-.3.3-.4.5-1.3 2-2.3 4.4-1.5 6.7.8 2.5 3.3 3.7 5.7 4.2.4.1.7.1 1.1 0h.4C9.9 55 12.9 88 16.6 107.2c.2 1 .8 1.6 1.6 1.7.2.1.5.2.7.3 14.9 3.4 30.2 4 45.3.9 1.3-.3 1.8-1.2 1.8-2.2.2-.3.3-.7.4-1.1 1.3-19.6 5.5-52.4 8.2-71.9v-.5c.7-.1 1.5-.1 2.2-.2 1.4-.1 2.2-1.2 2.3-2.3 1.3-3.1 1.4-6.5-.5-9.4-.6-.6-1.4-.9-2.1-.9zm-15.1 84.1c-13.4 2.5-27.1 1.9-40.4-1-1.1-5.6-2.1-24.8-3-30.5 7 2.2 13.6 1.4 20.7-1.5 8.6-3.6 16.2-8.5 25.9-7.3-1.3 8.9-2.5 31.3-3.2 40.3zm4.1-45.1c-.1 0-.3-.1-.4-.1C48 58.2 34.2 76 17.4 68.8c-.1 0-.2-.1-.2-.1-.4-2.8-.9-5.5-1.3-8.3C31.1 72 48.4 49.1 65.6 54c.3.1.6.1.9.1-.3 2.1-.7 4.3-1 6.5zm1.8-11.2c-.1-.1-.2-.1-.4-.1-8.7-2.4-16.8.8-24.6 4.4-9.5 4.4-18.9 9.2-26.8-.4-.2-.3-.5-.5-.8-.6-.8-5.6-1.6-11.2-2.3-16.8 19.1.7 38.2.8 57.2-.7-.8 4.6-1.5 9.4-2.3 14.2zm7.4-19.8c-22.3 2.2-44.7 2-67.1 1.1h-.5c-.6-.1-1.2-.3-1.7-.6-.4-.2-.1-.1-.4-.4.2.2 0-.1 0-.2-.2-.5.4-1.6 1-2.5 23 0 45.9-.6 68.9-.6.3 1 .3 2.1-.2 3.2z"/></svg>