<svg xmlns="http://www.w3.org/2000/svg" viewBox="0 0 80 86.3"><g fill="#F1F1F1"><path d="M79.7 52.6c-3.4-17.5-22-28.2-31.8-41.8C44.9 6.6 40.3-.5 34.3 0c-6.5.6-5.2 8-2.5 11.9-.1.3-.1.7.2 1 .8.8 1.6 1.7 2.4 2.5-12.6-.1-20.5 15-24.8 24.8C3.8 53.6-.5 69.7 0 84.4c0 1.2 1.3 2.1 2.4 1.7.1 0 .2.1.3.1 12 1.2 18.5-11.8 28.6-16 11.4-4.7 23-6.4 35-7.6.2.1.4.2.7.3.8.4 1.5.1 2-.4.6 0 1.3.1 1.9.1.5 0 1 .1 1.4.1 1.2.8 2.6 1.3 3.8.9 3.9-1.2 4.3-7.7 3.6-11zM20.9 42c-1.9 3.6-5.6 5.8-9.2 3.9 1.7-4.6 3.9-9.7 6.7-14.4 3.7 2.6 4.7 6.2 2.5 10.5zm15.5 23c-4.8 1.5-9.3 3.3-13.3 6.5C17.5 76 11.9 82.6 4.5 84.1 11.7 75.7 19.4 68 29 62.5c9.4-5.4 19.1-5.9 28.6-3.2-7.4 1.2-14.9 3.7-21.2 5.7zm-21.1-5c2.7-2.7 6.1-1.2 8 1.5.1.2.3.3.4.4-3.3 2.1-6.4 4.5-9.5 7.1v-.1c-1.4-3.1-1.5-6.4 1.1-8.9zM66 58.6c-14.1-7.4-27.6-5.1-39.6 1.7 0-.2-.1-.3-.2-.5-2.9-4.4-8.2-6.4-12.6-2.8-4 3.2-5.1 9.6-1 13.2.1.1.1.1.2.1-3.2 2.9-6.2 6-9 9.1.4-10.6 3.6-21.4 7.1-31.3 0-.1.1-.2.1-.2 9.8 6.5 21.1-13.5 9.2-19 4-5.7 9.2-10.3 16-11.2.1 0 .2-.1.3-.1 6.8 6.8 13.5 13.6 18.7 21.8 3.7 5.8 7.2 11.8 11.5 17.3.4.5.9 1.2 1.5 1.9-.7.1-1.5 0-2.2 0zm10.6.2c-1 5.8-7.9-4-9-5.4-3-4.1-5.6-8.5-8.3-12.8-6.7-11-14.6-20-24.7-28 .1-.4.1-.8-.2-1.1-3.1-5.3-2.7-8 1.4-8.2 1.8.3 3.3 2.1 4.5 3.3 2.1 2 3.7 4.5 5.4 6.8 2.7 3.8 6.3 7.1 9.5 10.5 8.4 8.6 23.8 21.3 21.4 34.9z"/><path d="M49.4 40.7c-.8-6-8-11.7-13.9-8.5-.6.3-.7 1-.6 1.6-3.5.9-6 3.7-5.7 7.9.4 4.7 4 9.3 8.7 10.1 6.1.9 12.2-5 11.5-11.1zm-11.8 7.4c-2.6-.8-4.6-3.9-4.9-6.5-.5-3.8 2-5.8 5.5-6.6.2 0 .3-.1.4-.2 3.6.4 6.9 2.4 7.5 6.5.5 4.3-4.6 8-8.5 6.8z"/></g></svg>